<?xml version="1.0" encoding="utf-8"?>
<!-- Generator: Adobe Illustrator 25.4.2, SVG Export Plug-In . SVG Version: 6.00 Build 0)  -->
<svg version="1.1" id="Layer_1" xmlns="http://www.w3.org/2000/svg" xmlns:xlink="http://www.w3.org/1999/xlink" x="0px" y="0px"
	 viewBox="0 0 720 720" style="enable-background:new 0 0 720 720;" xml:space="preserve">
<g>
	<path d="M228.8,316.2h-175v-175h87.5v87.5h87.5V316.2z M53.8,578.8h87.5v87.5H53.8V578.8z M228.8,141.2h-87.5V53.8h175v175h-87.5
		V141.2z M141.2,491.2h87.5v87.5h-87.5V491.2z M228.8,403.8h87.5v87.5h-87.5V403.8z M316.2,316.2h87.5v87.5h-87.5V316.2z
		 M403.8,228.8h87.5v87.5h-87.5V228.8z M491.2,578.8h87.5v87.5h-175v-175h87.5V578.8z M491.2,141.2h87.5v87.5h-87.5V141.2z
		 M491.2,403.8h175v175h-87.5v-87.5h-87.5V403.8z M666.2,53.8v87.5h-87.5V53.8H666.2z"/>
</g>
</svg>
